<svg width="13" height="17" viewBox="0 0 13 17" fill="none" xmlns="http://www.w3.org/2000/svg">
<g clip-path="url(#clip0_20725_388)">
<path d="M7.03348 2.21187C8.05093 0.881 9.46544 0.874512 9.46544 0.874512C9.46544 0.874512 9.67584 2.12575 8.66505 3.3311C7.58578 4.61814 6.35904 4.40754 6.35904 4.40754C6.35904 4.40754 6.12869 3.39532 7.03348 2.21187ZM6.48845 5.28403C7.01188 5.28403 7.98334 4.56997 9.24783 4.56997C11.4244 4.56997 12.2807 6.10702 12.2807 6.10702C12.2807 6.10702 10.606 6.95678 10.606 9.01867C10.606 11.3447 12.6922 12.1463 12.6922 12.1463C12.6922 12.1463 11.2339 16.2199 9.26404 16.2199C8.3593 16.2199 7.65592 15.6148 6.70264 15.6148C5.73118 15.6148 4.76715 16.2425 4.13927 16.2425C2.34051 16.2425 0.0680542 12.3783 0.0680542 9.27204C0.0680542 6.21596 1.99154 4.61279 3.79569 4.61279C4.96855 4.61279 5.8787 5.28403 6.48845 5.28403Z" fill="#999999"/>
</g>
<defs>
<clipPath id="clip0_20725_388">
<rect width="12.6242" height="15.3686" fill="white" transform="translate(0.0680542 0.873291)"/>
</clipPath>
</defs>
</svg>
