<svg width="18" height="23" viewBox="0 0 18 23" fill="none" xmlns="http://www.w3.org/2000/svg">
<path fill-rule="evenodd" clip-rule="evenodd" d="M4.81 0.475586H13.191C16.28 0.475586 18 2.4358 18 5.79458V17.1704C18 20.5843 16.28 22.5004 13.191 22.5004H4.81C1.77 22.5004 0 20.5843 0 17.1704V5.79458C0 2.4358 1.77 0.475586 4.81 0.475586ZM5.07999 5.6072V5.59619H8.06899C8.49999 5.59619 8.84999 5.98163 8.84999 6.45406C8.84999 6.93971 8.49999 7.32514 8.06899 7.32514H5.07999C4.64899 7.32514 4.29999 6.93971 4.29999 6.46617C4.29999 5.99264 4.64899 5.6072 5.07999 5.6072ZM5.07993 12.3025H12.9199C13.3499 12.3025 13.6999 11.9171 13.6999 11.4436C13.6999 10.97 13.3499 10.5835 12.9199 10.5835H5.07993C4.64893 10.5835 4.29993 10.97 4.29993 11.4436C4.29993 11.9171 4.64893 12.3025 5.07993 12.3025ZM5.07996 17.3354H12.92C13.319 17.2914 13.62 16.9158 13.62 16.4764C13.62 16.0249 13.319 15.6505 12.92 15.6065H5.07996C4.77996 15.5734 4.48996 15.7276 4.32996 16.0139C4.16996 16.2892 4.16996 16.6526 4.32996 16.939C4.48996 17.2143 4.77996 17.3795 5.07996 17.3354Z" fill="#0D0D0D"/>
</svg>
