<svg width="16" height="17" viewBox="0 0 16 17" fill="none" xmlns="http://www.w3.org/2000/svg">
<g clip-path="url(#clip0_20725_380)">
<path d="M15.9001 8.799C15.9001 8.16936 15.8478 7.70988 15.7346 7.2334H8.37695V10.0753H12.6957C12.6087 10.7815 12.1385 11.8451 11.0936 12.5598L11.079 12.655L13.4053 14.4161L13.5665 14.4318C15.0467 13.0959 15.9001 11.1304 15.9001 8.799Z" fill="#5A96F5"/>
<path d="M8.37696 16.2866C10.4928 16.2866 12.2691 15.6059 13.5665 14.4317L11.0936 12.5598C10.4319 13.0107 9.54371 13.3255 8.37696 13.3255C6.30464 13.3255 4.54578 11.9897 3.9188 10.1433L3.82689 10.1509L1.40792 11.9803L1.37628 12.0663C2.66495 14.5678 5.31197 16.2866 8.37696 16.2866Z" fill="#3ABB5D"/>
<path d="M3.91874 10.1434C3.7533 9.66696 3.65756 9.15639 3.65756 8.62887C3.65756 8.1013 3.7533 7.59079 3.91003 7.11431L3.90565 7.01283L1.45636 5.15405L1.37622 5.1913C0.845103 6.22938 0.540344 7.39511 0.540344 8.62887C0.540344 9.86264 0.845103 11.0283 1.37622 12.0664L3.91874 10.1434Z" fill="#FBC41E"/>
<path d="M8.37696 3.93198C9.84847 3.93198 10.8411 4.55311 11.4071 5.07218L13.6187 2.962C12.2604 1.72823 10.4928 0.970947 8.37696 0.970947C5.31197 0.970947 2.66495 2.6897 1.37628 5.19126L3.91009 7.11426C4.54578 5.26787 6.30464 3.93198 8.37696 3.93198Z" fill="#ED5A4C"/>
</g>
<defs>
<clipPath id="clip0_20725_380">
<rect width="15.3686" height="15.3686" fill="white" transform="translate(0.539612 0.970947)"/>
</clipPath>
</defs>
</svg>
