<svg width="20" height="18" viewBox="0 0 20 18" fill="none" xmlns="http://www.w3.org/2000/svg">
<path fill-rule="evenodd" clip-rule="evenodd" d="M19.7872 7.47402C19.6518 7.61887 19.4681 7.70164 19.2747 7.70164C18.559 7.70164 17.9787 8.32242 17.9787 9.07771C17.9787 9.83817 18.5522 10.4558 19.2611 10.4641C19.6605 10.4683 20 10.7662 20 11.1935V13.8474C20 16.0812 18.3075 17.8928 16.2186 17.8928H13.0658C12.7398 17.8928 12.4758 17.6104 12.4758 17.2617V15.0269C12.4758 14.5923 12.1567 14.2509 11.7505 14.2509C11.354 14.2509 11.0251 14.5923 11.0251 15.0269V17.2617C11.0251 17.6104 10.7611 17.8928 10.4362 17.8928H3.78143C1.70213 17.8928 0 16.0822 0 13.8474V11.1935C0 10.7662 0.339458 10.4683 0.738878 10.4641C1.44874 10.4558 2.02128 9.83817 2.02128 9.07771C2.02128 8.34312 1.46035 7.78441 0.725339 7.78441C0.531915 7.78441 0.348162 7.70164 0.212766 7.55679C0.0773694 7.41194 0 7.21536 0 7.00844V4.32873C0 2.09805 1.706 0.272949 3.7911 0.272949H10.4362C10.7611 0.272949 11.0251 0.555405 11.0251 0.904078V3.55275C11.0251 3.97695 11.354 4.32873 11.7505 4.32873C12.1567 4.32873 12.4758 3.97695 12.4758 3.55275V0.904078C12.4758 0.555405 12.7398 0.272949 13.0658 0.272949H16.2186C18.3075 0.272949 20 2.08356 20 4.31838V6.92566C20 7.13259 19.9226 7.32917 19.7872 7.47402ZM11.7505 12.2437C12.1567 12.2437 12.4758 11.8919 12.4758 11.4677V7.3292C12.4758 6.905 12.1567 6.55322 11.7505 6.55322C11.354 6.55322 11.0251 6.905 11.0251 7.3292V11.4677C11.0251 11.8919 11.354 12.2437 11.7505 12.2437Z" fill="#6E6E6E"/>
</svg>
