<svg width="28" height="28" viewBox="0 0 28 28" fill="none" xmlns="http://www.w3.org/2000/svg">
<path d="M10.5 4.66667V23.3333M16.3333 11.6667L18.6667 14L16.3333 16.3333M4.66667 7.00001C4.66667 6.38117 4.9125 5.78767 5.35009 5.35009C5.78767 4.9125 6.38117 4.66667 7.00001 4.66667H21C21.6188 4.66667 22.2123 4.9125 22.6499 5.35009C23.0875 5.78767 23.3333 6.38117 23.3333 7.00001V21C23.3333 21.6188 23.0875 22.2123 22.6499 22.6499C22.2123 23.0875 21.6188 23.3333 21 23.3333H7.00001C6.38117 23.3333 5.78767 23.0875 5.35009 22.6499C4.9125 22.2123 4.66667 21.6188 4.66667 21V7.00001Z" stroke="#6E6E6E" stroke-width="1.5" stroke-linecap="round" stroke-linejoin="round" fill="#FFFFFF"/>
</svg>
