<svg width="18" height="23" viewBox="0 0 18 23" fill="none" xmlns="http://www.w3.org/2000/svg">
<path fill-rule="evenodd" clip-rule="evenodd" d="M15.7071 7.81985C15.7071 9.20294 16.039 10.0181 16.7695 10.9576C17.3231 11.6497 17.5 12.5381 17.5 13.5019C17.5 14.4646 17.2128 15.3786 16.6373 16.1206C15.884 17.0101 14.8215 17.578 13.7372 17.6767C12.1659 17.8242 10.5937 17.9484 9.0005 17.9484C7.40634 17.9484 5.83505 17.8741 4.26375 17.6767C3.17846 17.578 2.11602 17.0101 1.36367 16.1206C0.78822 15.3786 0.5 14.4646 0.5 13.5019C0.5 12.5381 0.677901 11.6497 1.23049 10.9576C1.98384 10.0181 2.29392 9.20294 2.29392 7.81985V7.35069C2.29392 5.49844 2.71333 4.28728 3.577 3.10162C4.86106 1.37248 6.91935 0.335449 8.95577 0.335449H9.04522C11.1254 0.335449 13.2502 1.4224 14.5125 3.22584C15.3314 4.3871 15.7071 5.54725 15.7071 7.35069V7.81985ZM6.07367 20.2248C6.07367 19.6702 6.53582 19.4163 6.96318 19.3076C7.46309 19.1911 10.5093 19.1911 11.0092 19.3076C11.4365 19.4163 11.8987 19.6702 11.8987 20.2248C11.8738 20.7528 11.5926 21.2208 11.204 21.5181C10.7001 21.9506 10.1087 22.2246 9.49057 22.3233C9.14868 22.3721 8.81275 22.3732 8.48279 22.3233C7.86361 22.2246 7.27227 21.9506 6.76937 21.5169C6.37978 21.2208 6.09852 20.7528 6.07367 20.2248Z" fill="#6E6E6E"/>
</svg>
