<svg width="20" height="23" viewBox="0 0 20 23" fill="none" xmlns="http://www.w3.org/2000/svg">
<path fill-rule="evenodd" clip-rule="evenodd" d="M18.4022 13.5175C18.7599 13.7268 19.0358 14.0571 19.23 14.3875C19.6081 15.0703 19.5775 15.9072 19.2096 16.645L18.4942 17.9665C18.1161 18.6713 17.4109 19.1118 16.6853 19.1118C16.3277 19.1118 15.9291 19.0017 15.6021 18.7815C15.3364 18.5942 15.0298 18.5282 14.7027 18.5282C13.691 18.5282 12.8428 19.4422 12.8121 20.5324C12.8121 21.7989 11.8719 22.79 10.6967 22.79H9.3068C8.12133 22.79 7.18113 21.7989 7.18113 20.5324C7.16069 19.4422 6.31247 18.5282 5.30073 18.5282C4.96348 18.5282 4.6569 18.5942 4.40141 18.7815C4.07438 19.0017 3.6656 19.1118 3.31813 19.1118C2.58232 19.1118 1.87717 18.6713 1.49905 17.9665L0.793898 16.645C0.415773 15.9292 0.395334 15.0703 0.773459 14.3875C0.936972 14.0571 1.24356 13.7268 1.59102 13.5175C1.87717 13.3633 2.06112 13.1101 2.23486 12.8127C2.74584 11.8657 2.43925 10.6212 1.57059 10.0596C0.558848 9.43191 0.231821 8.03333 0.814337 6.9431L1.49905 5.64364C2.09178 4.55341 3.35901 4.16797 4.38097 4.80669C5.27007 5.33529 6.42488 4.98289 6.94608 4.04684C7.10959 3.73849 7.20157 3.40812 7.18113 3.07774C7.16069 2.64826 7.27311 2.2408 7.46728 1.91043C7.8454 1.22766 8.53012 0.787162 9.27614 0.765137H10.7171C11.4734 0.765137 12.1581 1.22766 12.5362 1.91043C12.7201 2.2408 12.8428 2.64826 12.8121 3.07774C12.7917 3.40812 12.8837 3.73849 13.0472 4.04684C13.5684 4.98289 14.7232 5.33529 15.6225 4.80669C16.6342 4.16797 17.9117 4.55341 18.4942 5.64364L19.1789 6.9431C19.7716 8.03333 19.4446 9.43191 18.4227 10.0596C17.554 10.6212 17.2474 11.8657 17.7686 12.8127C17.9321 13.1101 18.1161 13.3633 18.4022 13.5175ZM7.10962 11.7884C7.10962 13.5173 8.40751 14.8939 10.012 14.8939C11.6165 14.8939 12.8837 13.5173 12.8837 11.7884C12.8837 10.0594 11.6165 8.67188 10.012 8.67188C8.40751 8.67188 7.10962 10.0594 7.10962 11.7884Z" fill="#6E6E6E"/>
</svg>
