<svg width="244" height="39" viewBox="0 0 244 39" fill="none" xmlns="http://www.w3.org/2000/svg">
<path fill-rule="evenodd" clip-rule="evenodd" d="M17.9685 1.60008C13.797 1.60066 9.76185 3.12528 6.58475 5.90121C3.40765 8.67714 1.2959 12.5233 0.627255 16.7517C-0.0413889 20.98 0.776693 25.3147 2.93516 28.9804C5.09363 32.6461 8.45167 35.4037 12.4086 36.7598C13.2871 36.9273 13.6636 36.3731 13.6636 35.8962V32.8288C8.78148 33.9114 7.75233 30.4057 7.75233 30.4057C7.40901 29.301 6.68644 28.362 5.71914 27.7636C4.12522 26.6552 5.84464 26.6681 5.84464 26.6681C6.40139 26.7489 6.93281 26.9592 7.39829 27.2831C7.86378 27.607 8.25103 28.0359 8.53047 28.5369C9.0166 29.4323 9.82912 30.0928 10.7894 30.3732C11.7496 30.6535 12.779 30.5308 13.6511 30.032C13.722 29.1175 14.1145 28.2608 14.7555 27.6218C10.8649 27.1579 6.76084 25.6112 6.76084 18.703C6.73238 16.9088 7.37986 15.1727 8.56812 13.857C8.03028 12.3029 8.09316 10.5962 8.74382 9.08827C8.74382 9.08827 10.2122 8.59851 13.5758 10.9313C16.4517 10.1257 19.4853 10.1257 22.3612 10.9313C25.7122 8.59851 27.1806 9.08827 27.1806 9.08827C27.8313 10.5962 27.8942 12.3029 27.3563 13.857C28.5446 15.1727 29.1921 16.9088 29.1636 18.703C29.1636 25.637 25.0596 27.1579 21.1438 27.609C21.5632 28.0456 21.8867 28.5694 22.0924 29.1453C22.2981 29.7211 22.3812 30.3355 22.3361 30.9471V35.8962C22.3361 36.4891 22.6499 36.9402 23.5911 36.7598C27.5533 35.402 30.9148 32.6391 33.0729 28.9667C35.231 25.2943 36.0446 20.9524 35.3677 16.7198C34.6909 12.4871 32.5678 8.64049 29.3793 5.86973C26.1908 3.09896 22.1454 1.58526 17.9685 1.60008Z" fill="#999999"/>
<path d="M84.4 2.79999C75.1225 2.79999 67.6 10.1434 67.6 19.2C67.6 28.2566 75.1225 35.6 84.4 35.6C93.6775 35.6 101.2 28.2566 101.2 19.2C101.2 10.1434 93.6775 2.79999 84.4 2.79999ZM92.4738 15.1622C92.485 15.3343 92.485 15.5136 92.485 15.6894C92.485 21.0633 88.2925 27.2536 80.6313 27.2536C78.2688 27.2536 76.0788 26.5836 74.2338 25.4305C74.5713 25.4671 74.8938 25.4818 75.2388 25.4818C77.1888 25.4818 78.9813 24.8375 80.41 23.7466C78.58 23.71 77.0425 22.5386 76.5175 20.9278C77.1588 21.0194 77.7363 21.0194 78.3963 20.8546C77.454 20.6678 76.6071 20.1682 75.9993 19.4408C75.3916 18.7134 75.0606 17.8031 75.0625 16.8645V16.8132C75.6138 17.117 76.2625 17.3037 76.9413 17.3294C76.3707 16.9581 75.9028 16.4552 75.579 15.8652C75.2552 15.2751 75.0855 14.6162 75.085 13.9469C75.085 13.1891 75.2875 12.4972 75.6513 11.8969C76.6972 13.1537 78.0023 14.1817 79.4818 14.9139C80.9613 15.6461 82.5821 16.0662 84.2388 16.147C83.65 13.3831 85.765 11.1464 88.3075 11.1464C89.5075 11.1464 90.5875 11.637 91.3488 12.4277C92.29 12.2556 93.19 11.9115 93.9925 11.4503C93.6813 12.3911 93.0288 13.1854 92.1625 13.687C93.0025 13.5991 93.8125 13.3721 94.5625 13.0536C93.9963 13.8663 93.2875 14.5875 92.4738 15.1622Z" fill="#999999"/>
<path d="M164.64 4.79999H140.16C138.96 4.79999 138 5.75999 138 6.83999V31.44C138 32.52 138.96 33.48 140.16 33.48H164.64C165.84 33.48 166.8 32.52 166.8 31.44V6.83999C166.8 5.75999 165.84 4.79999 164.64 4.79999ZM146.52 29.28H142.32V15.6H146.52V29.28ZM144.48 13.68C143.16 13.68 141.96 12.6 141.96 11.16C141.96 9.71999 143.04 8.63999 144.48 8.63999C145.8 8.63999 147 9.71999 147 11.16C147 12.6 145.8 13.68 144.48 13.68ZM162.6 29.16H158.4V22.44C158.4 20.88 158.4 18.72 156.12 18.72C153.84 18.72 153.6 20.52 153.6 22.2V29.04H149.4V15.6H153.36V17.4H153.48C154.08 16.32 155.52 15.12 157.56 15.12C161.88 15.12 162.72 18 162.72 21.72V29.16H162.6Z" fill="#999999"/>
<path d="M220.659 17.8884C220.296 17.8589 219.932 17.9354 219.614 18.1078C219.297 18.2802 219.042 18.5405 218.881 18.8546C218.721 19.1688 218.663 19.5221 218.715 19.8684C218.767 20.2147 218.927 20.5379 219.174 20.7955C219.42 21.0531 219.742 21.2333 220.097 21.3124C220.452 21.3915 220.824 21.3659 221.163 21.2388C221.503 21.1118 221.795 20.8893 222 20.6005C222.206 20.3116 222.316 19.9699 222.316 19.62C222.326 19.4018 222.291 19.1839 222.213 18.9787C222.135 18.7736 222.015 18.5852 221.861 18.4244C221.707 18.2636 221.522 18.1335 221.316 18.0415C221.109 17.9495 220.886 17.8975 220.659 17.8884ZM226.59 17.8884C226.227 17.8589 225.863 17.9354 225.546 18.1078C225.229 18.2802 224.973 18.5405 224.812 18.8546C224.652 19.1688 224.594 19.5221 224.646 19.8684C224.698 20.2147 224.858 20.5379 225.105 20.7955C225.351 21.0531 225.673 21.2333 226.028 21.3124C226.383 21.3915 226.755 21.3659 227.095 21.2388C227.434 21.1118 227.726 20.8893 227.932 20.6005C228.137 20.3116 228.247 19.9699 228.248 19.62C228.257 19.4018 228.222 19.1839 228.144 18.9787C228.066 18.7736 227.947 18.5852 227.793 18.4244C227.639 18.2636 227.453 18.1335 227.247 18.0415C227.041 17.9495 226.817 17.8975 226.59 17.8884Z" fill="#999999"/>
<path d="M234.487 4.79999H212.712C212.274 4.80093 211.84 4.88481 211.435 5.04684C211.03 5.20886 210.663 5.44586 210.353 5.74428C210.044 6.04271 209.799 6.39672 209.632 6.78609C209.465 7.17547 209.38 7.59257 209.381 8.01359V29.1048C209.38 29.5258 209.465 29.9429 209.632 30.3323C209.799 30.7217 210.044 31.0757 210.353 31.3741C210.663 31.6725 211.03 31.9095 211.435 32.0715C211.84 32.2336 212.274 32.3174 212.712 32.3184H231.14L230.279 29.4324L232.359 31.2888L234.325 33.036L237.819 36V8.01359C237.82 7.59257 237.735 7.17547 237.568 6.78609C237.401 6.39672 237.156 6.04271 236.847 5.74428C236.537 5.44586 236.17 5.20886 235.765 5.04684C235.36 4.88481 234.926 4.80093 234.487 4.79999ZM228.215 25.1736C228.215 25.1736 227.63 24.5028 227.142 23.91C228.32 23.6438 229.362 22.9862 230.084 22.0536C229.499 22.4271 228.872 22.7359 228.215 22.974C227.459 23.2838 226.668 23.5089 225.859 23.6448C224.467 23.8908 223.04 23.8855 221.65 23.6292C220.834 23.4759 220.035 23.2514 219.261 22.9584C218.854 22.8079 218.457 22.6307 218.075 22.428C218.026 22.3968 217.977 22.3812 217.929 22.35C217.904 22.3383 217.882 22.3224 217.864 22.3032C217.708 22.2216 217.556 22.1331 217.409 22.038C218.104 22.9511 219.11 23.6022 220.252 23.8788C219.765 24.4716 219.164 25.1736 219.164 25.1736C218.198 25.1986 217.242 24.9954 216.377 24.5819C215.513 24.1684 214.768 23.5573 214.207 22.8024C214.26 19.6398 215.06 16.53 216.547 13.7076C217.856 12.7208 219.452 12.1485 221.114 12.0696L221.276 12.2568C219.713 12.6283 218.253 13.326 217.002 14.3004C217.002 14.3004 217.36 14.1132 217.961 13.848C219.129 13.3361 220.374 13.0044 221.65 12.8652C221.741 12.8471 221.833 12.8367 221.926 12.834C223.015 12.6978 224.117 12.6873 225.209 12.8028C226.925 12.991 228.587 13.4997 230.1 14.3004C228.913 13.3725 227.533 12.6972 226.054 12.3192L226.281 12.0696C227.943 12.1485 229.539 12.7208 230.847 13.7076C232.335 16.53 233.135 19.6398 233.187 22.8024C232.623 23.5566 231.874 24.1668 231.008 24.58C230.141 24.9933 229.182 25.1971 228.215 25.1736Z" fill="#999999"/>
</svg>
