<svg width="20" height="23" viewBox="0 0 20 23" fill="none" xmlns="http://www.w3.org/2000/svg">
<path fill-rule="evenodd" clip-rule="evenodd" d="M5.33 0H14.669C18.07 0 19.99 2.1243 20 5.86962V16.1552C20 19.8994 18.07 22.0248 14.669 22.0248H5.33C1.929 22.0248 0 19.8994 0 16.1552V5.86962C0 2.1243 1.929 0 5.33 0ZM10.049 17.4657C10.48 17.4657 10.839 17.1133 10.879 16.6398V5.4181C10.919 5.07672 10.77 4.73423 10.5 4.54812C10.219 4.36091 9.87903 4.36091 9.61003 4.54812C9.33903 4.73423 9.19003 5.07672 9.21903 5.4181V16.6398C9.27003 17.1133 9.62903 17.4657 10.049 17.4657ZM14.65 17.4655C15.07 17.4655 15.429 17.1131 15.48 16.6396V13.0275C15.509 12.674 15.36 12.3447 15.089 12.1575C14.82 11.9703 14.48 11.9703 14.2 12.1575C13.929 12.3447 13.78 12.674 13.82 13.0275V16.6396C13.86 17.1131 14.219 17.4655 14.65 17.4655ZM6.21896 16.64C6.17896 17.1135 5.81996 17.4659 5.38896 17.4659C4.95896 17.4659 4.59896 17.1135 4.55996 16.64V9.03041C4.52996 8.68792 4.67896 8.34764 4.94996 8.16043C5.21896 7.97322 5.55996 7.97322 5.82996 8.16043C6.09896 8.34764 6.24996 8.68792 6.21896 9.03041V16.64Z" fill="#6E6E6E"/>
</svg>
